<svg width="186" height="51" viewBox="0 0 186 51" fill="none" xmlns="http://www.w3.org/2000/svg">
<path d="M26.5 1.5C40.1707 1.5 51.253 12.5823 51.253 26.2529V45.4235C51.253 47.3565 49.686 48.9235 47.753 48.9235H25.4589C12.3632 48.9235 1.74708 38.3074 1.74708 25.2118C1.74708 12.1161 12.3632 1.5 25.4589 1.5H26.5Z" stroke="#4265DF" stroke-width="3"/>
<path d="M26.5 8.21173C36.165 8.21173 44 16.0467 44 25.7117V39.7234C44 41.0976 42.8859 42.2117 41.5116 42.2117H26C16.6112 42.2117 9 34.6006 9 25.2117C9 15.8229 16.6112 8.21173 26 8.21173H26.5Z" stroke="#4265DF" stroke-width="2"/>
<line x1="58" y1="46.7529" x2="186" y2="46.7529" stroke="#4265DF" stroke-width="2"/>
<path d="M63.075 19.7529L67.95 34.5529L72.825 19.7529H74.9L69.175 36.7529H66.725L61 19.7529H63.075ZM77.1416 36.7529V19.7529H79.1416V36.7529H77.1416ZM83.6357 36.7529V19.7529H89.4607C90.8107 19.7529 91.9607 20.2279 92.9107 21.1779C93.8607 22.1113 94.3357 23.2613 94.3357 24.6279C94.3357 25.5946 94.0774 26.4696 93.5607 27.2529C93.0607 28.0363 92.3857 28.6279 91.5357 29.0279C92.0357 29.2446 92.4024 29.6529 92.6357 30.2529L95.0107 36.5529L93.1107 37.1529L90.6357 30.6029C90.4024 30.0029 90.1691 29.6613 89.9357 29.5779C89.8024 29.5279 89.6357 29.4946 89.4357 29.4779H85.6357V36.7529H83.6357ZM89.3607 21.5779H85.6357V27.7279H89.3607C90.1774 27.7279 90.8774 27.4196 91.4607 26.8029C92.0441 26.1863 92.3357 25.4613 92.3357 24.6279C92.3357 23.7946 92.0441 23.0779 91.4607 22.4779C90.8774 21.8779 90.1774 21.5779 89.3607 21.5779ZM100.738 36.7529V21.5529H95.9883V19.7529H107.488V21.5529H102.738V36.7529H100.738ZM109.481 19.7529H111.481V30.5529C111.481 31.9696 111.831 33.1196 112.531 34.0029C113.248 34.8863 114.323 35.3279 115.756 35.3279C117.19 35.3279 118.265 34.8863 118.981 34.0029C119.698 33.1196 120.056 31.9696 120.056 30.5529V19.7529H122.056V30.4279C122.056 32.4113 121.531 34.0279 120.481 35.2779C119.431 36.5279 117.856 37.1529 115.756 37.1529C113.656 37.1529 112.081 36.5279 111.031 35.2779C109.998 34.0279 109.481 32.4113 109.481 30.4279V19.7529ZM132.114 19.7529L137.839 36.7529H135.764L134.114 31.7529H127.664L126.014 36.7529H123.939L129.664 19.7529H132.114ZM130.889 21.9529L128.239 29.9529H133.514L130.889 21.9529ZM141.583 36.7529V21.5529H136.833V19.7529H148.333V21.5529H143.583V36.7529H141.583ZM152.701 34.9529H159.626V36.7529H150.701V19.7529H152.701V34.9529ZM161.583 36.7529V19.7529H170.833V21.5529H163.583V27.3529H169.508V29.1529H163.583V34.9529H171.333V36.7529H161.583ZM174.327 36.7529V19.7529H183.577V21.5529H176.327V27.3529H182.252V29.1529H176.327V34.9529H184.077V36.7529H174.327Z" fill="#4265DF"/>
</svg>
